<svg width="21" height="16" viewBox="0 0 21 16" fill="none" xmlns="http://www.w3.org/2000/svg">
<path opacity="0.6" d="M0.873008 13.746C0.372762 12.7455 0.687911 11.5293 1.61109 10.8977L16.6186 0.629381C17.8577 -0.218419 19.5621 0.264811 20.1719 1.63678V1.63678C20.6496 2.71158 20.2792 3.9742 19.2966 4.62064L4.10528 14.6149C2.98508 15.3519 1.47267 14.9453 0.873008 13.746V13.746ZM0.819174 1.65686C1.43358 0.274442 3.15101 -0.212468 4.39954 0.641788L19.3354 10.861C20.2998 11.5209 20.6554 12.7753 20.1808 13.8431V13.8431C19.5664 15.2256 17.849 15.7125 16.6005 14.8582L1.66463 4.63896C0.700229 3.9791 0.344587 2.72468 0.819174 1.65686V1.65686Z" fill="#737373"/>
</svg>
